<?xml version="1.0" encoding="UTF-8"?>
<svg version="1.1" xmlns="http://www.w3.org/2000/svg" width="64" height="64">
<path d="M0 0 C8.34468007 4.97590182 13.53387008 11.86345977 16.109375 21.2578125 C17.10789012 32.35758522 16.45884702 41.9922991 9.359375 51.0703125 C3.70168013 57.1280464 -3.34488592 60.84888618 -11.625 61.59375 C-22.35447774 61.83515993 -31.19802606 60.58332943 -39.359375 52.9609375 C-46.75303791 44.73737365 -48.47252567 36.02335615 -48.203125 25.24609375 C-47.72879865 16.86039919 -44.11592977 9.8548755 -37.890625 4.2578125 C-27.15195714 -3.81766573 -12.32399863 -5.91386512 0 0 Z " fill="#9AD963" transform="translate(47.890625,2.7421875)"/>
<path d="M0 0 C1.69522499 1.41435931 3.37377348 2.84274038 5.03515625 4.296875 C6.2863763 5.38143154 7.56331605 6.43748136 8.87109375 7.453125 C10.5625 8.875 10.5625 8.875 13 12 C12.51604655 19.38029019 8.41974636 25.74982784 3.109375 30.796875 C-2.06967204 34.91564469 -7.3135575 37.42272741 -13.84375 38.4453125 C-18.42752029 37.79859243 -20.34298393 35.32398799 -23.375 32 C-23.92027344 31.42765625 -24.46554688 30.8553125 -25.02734375 30.265625 C-26.36559012 28.85694461 -27.68474975 27.43017503 -29 26 C-26.43387168 23.36451686 -24.43981731 22.7762602 -20.8828125 22.671875 C-19.29669657 22.68246676 -17.71062168 22.70901463 -16.125 22.75 C-15.33480469 22.75515625 -14.54460938 22.7603125 -13.73046875 22.765625 C-9.39015566 22.82339955 -5.27131513 23.1484838 -1 24 C-1 23.01 -1 22.02 -1 21 C-9.58 21 -18.16 21 -27 21 C-27.33 19.35 -27.66 17.7 -28 16 C-20.08 16 -12.16 16 -4 16 C-3.67 13.03 -3.34 10.06 -3 7 C-1.4375 2.9375 -1.4375 2.9375 0 0 Z " fill="#6DBF4C" transform="translate(51,26)"/>
<path d="M0 0 C3.63 0 7.26 0 11 0 C11.33 2.31 11.66 4.62 12 7 C21.9 7 31.8 7 42 7 C41 15 41 15 39 24 C31.08 24 23.16 24 15 24 C15.33 25.65 15.66 27.3 16 29 C24.58 29 33.16 29 42 29 C42 29.99 42 30.98 42 32 C32.1 32 22.2 32 12 32 C11.34 28.32875 10.68 24.6575 10 20.875 C9.79117187 19.7288623 9.58234375 18.58272461 9.3671875 17.40185547 C9.20476563 16.48291504 9.04234375 15.56397461 8.875 14.6171875 C8.70742188 13.68503418 8.53984375 12.75288086 8.3671875 11.79248047 C7.9778528 8.8315694 7.93841585 5.98298238 8 3 C5.36 3 2.72 3 0 3 C0 2.01 0 1.02 0 0 Z " fill="#EEF2F3" transform="translate(8,18)"/>
<path d="M0 0 C9.9 0 19.8 0 30 0 C29 8 29 8 27 17 C19.08 17 11.16 17 3 17 C3 16.67 3 16.34 3 16 C6.63 16 10.26 16 14 16 C14 11.05 14 6.1 14 1 C9.38 1 4.76 1 0 1 C0 0.67 0 0.34 0 0 Z " fill="#CBD4D9" transform="translate(20,25)"/>
<path d="M0 0 C4.62 0 9.24 0 14 0 C14 4.95 14 9.9 14 15 C10.37 15 6.74 15 3 15 C2.01 10.05 1.02 5.1 0 0 Z " fill="#E0E5EE" transform="translate(20,26)"/>
<path d="M0 0 C1.8030208 3.87872066 2.78690963 7.88415767 4 12 C-1.61 12 -7.22 12 -13 12 C-13.66 9.03 -14.32 6.06 -15 3 C-13.25531628 2.29911844 -11.50398839 1.61475991 -9.75 0.9375 C-8.77546875 0.55464844 -7.8009375 0.17179688 -6.796875 -0.22265625 C-2.51595388 -1.41246533 -2.51595388 -1.41246533 0 0 Z " fill="#F6A74A" transform="translate(38,13)"/>
<path d="M0 0 C2.015625 0.94140625 2.015625 0.94140625 3.28125 3.6640625 C3.60609375 4.76621094 3.9309375 5.86835938 4.265625 7.00390625 C4.60078125 8.10863281 4.9359375 9.21335937 5.28125 10.3515625 C5.52359375 11.20621094 5.7659375 12.06085937 6.015625 12.94140625 C3.045625 12.94140625 0.075625 12.94140625 -2.984375 12.94140625 C-3.52903887 8.85642725 -3.984375 5.06885775 -3.984375 0.94140625 C-1.984375 -0.05859375 -1.984375 -0.05859375 0 0 Z " fill="#DB7D03" transform="translate(35.984375,12.05859375)"/>
<path d="M0 0 C4.52615993 3.67832017 8.39424999 7.41086363 12 12 C9.36 12 6.72 12 4 12 C3.32645501 10.56570999 2.66140299 9.12742943 2 7.6875 C1.62875 6.88699219 1.2575 6.08648437 0.875 5.26171875 C0 3 0 3 0 0 Z " fill="#6DBF48" transform="translate(38,13)"/>
<path d="M0 0 C5.28 0 10.56 0 16 0 C16 0.99 16 1.98 16 3 C10.72 3 5.44 3 0 3 C0 2.01 0 1.02 0 0 Z " fill="#DDE2EB" transform="translate(34,47)"/>
<path d="M0 0 C2.31 0 4.62 0 7 0 C7 2.31 7 4.62 7 7 C5.83040013 6.02433888 4.66438823 5.044375 3.5 4.0625 C2.8503125 3.51722656 2.200625 2.97195312 1.53125 2.41015625 C1.0259375 1.94480469 0.520625 1.47945312 0 1 C0 0.67 0 0.34 0 0 Z " fill="#6EC14B" transform="translate(9,22)"/>
<path d="M0 0 C1.32 0 2.64 0 4 0 C3.67 1.65 3.34 3.3 3 5 C1.68 4.67 0.36 4.34 -1 4 C-0.67 2.68 -0.34 1.36 0 0 Z " fill="#5A6565" transform="translate(26,49)"/>
<path d="M0 0 C1.32 0 2.64 0 4 0 C4 1.65 4 3.3 4 5 C2.68 4.67 1.36 4.34 0 4 C0 2.68 0 1.36 0 0 Z " fill="#384243" transform="translate(40,49)"/>
</svg>
